<svg width="33" height="32" viewBox="0 0 33 32" fill="none" xmlns="http://www.w3.org/2000/svg">
<path d="M3.44514 32C2.51181 32 1.72847 31.6833 1.09514 31.05C0.461808 30.4167 0.145142 29.6333 0.145142 28.7C0.145142 27.7667 0.461808 26.9833 1.09514 26.35C1.72847 25.7167 2.51181 25.4 3.44514 25.4C4.37848 25.4 5.16181 25.7167 5.79514 26.35C6.42847 26.9833 6.74514 27.7667 6.74514 28.7C6.74514 29.6333 6.42847 30.4167 5.79514 31.05C5.16181 31.6833 4.37848 32 3.44514 32ZM3.44514 19.3C2.51181 19.3 1.72847 18.9833 1.09514 18.35C0.461808 17.7167 0.145142 16.9333 0.145142 16C0.145142 15.0667 0.461808 14.2833 1.09514 13.65C1.72847 13.0167 2.51181 12.7 3.44514 12.7C4.37848 12.7 5.16181 13.0167 5.79514 13.65C6.42847 14.2833 6.74514 15.0667 6.74514 16C6.74514 16.9333 6.42847 17.7167 5.79514 18.35C5.16181 18.9833 4.37848 19.3 3.44514 19.3ZM3.44514 6.6C2.51181 6.6 1.72847 6.28333 1.09514 5.65C0.461808 5.01667 0.145142 4.23333 0.145142 3.3C0.145142 2.36667 0.461808 1.58333 1.09514 0.95C1.72847 0.316666 2.51181 0 3.44514 0C4.37848 0 5.16181 0.316666 5.79514 0.95C6.42847 1.58333 6.74514 2.36667 6.74514 3.3C6.74514 4.23333 6.42847 5.01667 5.79514 5.65C5.16181 6.28333 4.37848 6.6 3.44514 6.6ZM16.1451 19.3C15.2118 19.3 14.4285 18.9833 13.7951 18.35C13.1618 17.7167 12.8451 16.9333 12.8451 16C12.8451 15.0667 13.1618 14.2833 13.7951 13.65C14.4285 13.0167 15.2118 12.7 16.1451 12.7C17.0785 12.7 17.8618 13.0167 18.4951 13.65C19.1285 14.2833 19.4451 15.0667 19.4451 16L16.1451 19.3ZM16.1451 6.6C15.2118 6.6 14.4285 6.28333 13.7951 5.65C13.1618 5.01667 12.8451 4.23333 12.8451 3.3C12.8451 2.36667 13.1618 1.58333 13.7951 0.95C14.4285 0.316666 15.2118 0 16.1451 0C17.0785 0 17.8618 0.316666 18.4951 0.95C19.1285 1.58333 19.4451 2.36667 19.4451 3.3C19.4451 4.23333 19.1285 5.01667 18.4951 5.65C17.8618 6.28333 17.0785 6.6 16.1451 6.6ZM14.1451 32V28.75L26.2951 16.6L29.5451 19.85L17.3951 32H14.1451ZM28.8451 6.6C27.9118 6.6 27.1285 6.28333 26.4951 5.65C25.8618 5.01667 25.5451 4.23333 25.5451 3.3C25.5451 2.36667 25.8618 1.58333 26.4951 0.95C27.1285 0.316666 27.9118 0 28.8451 0C29.7785 0 30.5618 0.316666 31.1951 0.95C31.8285 1.58333 32.1451 2.36667 32.1451 3.3C32.1451 4.23333 31.8285 5.01667 31.1951 5.65C30.5618 6.28333 29.7785 6.6 28.8451 6.6ZM30.8451 18.55L27.5951 15.3L28.8451 14.05C29.1118 13.7833 29.4451 13.6417 29.8451 13.625C30.2451 13.6083 30.5785 13.7333 30.8451 14L32.1451 15.3C32.4118 15.5667 32.5368 15.9 32.5201 16.3C32.5035 16.7 32.3618 17.0333 32.0951 17.3L30.8451 18.55Z" fill="currentColor"/>
</svg>
