<svg width="16" height="10" viewBox="0 0 16 10" fill="none" xmlns="http://www.w3.org/2000/svg">
<path fill-rule="evenodd" clip-rule="evenodd" d="M2.63714 3.05993C3.77805 4.5987 5.51958 6.0971 7.99974 6.0971C10.4799 6.0971 12.2214 4.5987 13.3624 3.05993C13.9332 2.29005 14.3468 1.51795 14.6175 0.93829C14.7525 0.649106 14.851 0.409614 14.9151 0.244713C14.9471 0.162314 14.9704 0.0986982 14.9853 0.0569969C14.9927 0.0361512 14.998 0.020798 15.0013 0.0113296L15.0046 0.00159602L15.0049 0.000561656C15.0049 0.000561656 15.0048 0.0009965 15.5024 0.242588C15.9999 0.48418 15.9998 0.484764 15.9998 0.484764L15.9989 0.487411L15.997 0.49301L15.9908 0.511168C15.9856 0.526316 15.9783 0.54749 15.9687 0.574289C15.9496 0.627876 15.9216 0.704016 15.8845 0.799489C15.8104 0.990331 15.6996 1.25904 15.5499 1.5797C15.2512 2.21973 14.794 3.07389 14.159 3.93026C13.963 4.19462 13.7494 4.45994 13.5178 4.71963L15.3454 6.93813L14.5875 7.85808L12.6853 5.54901C11.6051 6.49907 10.2318 7.24599 8.53565 7.37751L8.53566 10.0001L7.46386 10.0001L7.46384 7.37751C5.76768 7.24599 4.39443 6.49908 3.31425 5.54902L1.41198 7.85808L0.654102 6.93813L2.48175 4.71965C2.25009 4.45995 2.03649 4.19462 1.84048 3.93026C1.20553 3.07389 0.748351 2.21973 0.449564 1.5797C0.299869 1.25904 0.189095 0.990328 0.114977 0.799486C0.0778984 0.704013 0.0499324 0.627873 0.0308023 0.574286C0.0212356 0.547487 0.0138729 0.526313 0.00868 0.511165L0.00251155 0.493007L0.000638359 0.487408L2.99695e-06 0.485494C2.99695e-06 0.485494 -0.000432104 0.484177 0.49714 0.242588C0.994713 0.000999689 0.994569 0.000564836 0.994569 0.000564836L0.994917 0.00159916L0.998226 0.0113328C1.00147 0.0208011 1.0068 0.0361543 1.01424 0.057C1.02913 0.0987012 1.05245 0.162317 1.08445 0.244716C1.14849 0.409617 1.24706 0.649109 1.38206 0.938293C1.65266 1.51795 2.06632 2.29005 2.63714 3.05993Z" fill="currentColor"/>
</svg>
