<svg width="42" height="40" viewBox="0 0 42 40" fill="none" xmlns="http://www.w3.org/2000/svg">
<path d="M19.575 39.975C16.9417 39.8417 14.475 39.225 12.175 38.125C9.87505 37.025 7.87505 35.5834 6.17505 33.8C4.47505 32.0167 3.13338 29.9417 2.15005 27.575C1.16672 25.2084 0.675049 22.6917 0.675049 20.025C0.675049 17.2584 1.20005 14.6584 2.25005 12.225C3.30005 9.79169 4.72505 7.67502 6.52505 5.87502C8.32505 4.07502 10.4417 2.65002 12.875 1.60002C15.3084 0.550024 17.9084 0.0250244 20.675 0.0250244C25.6417 0.0250244 29.9584 1.59169 33.625 4.72502C37.2917 7.85836 39.5417 11.7917 40.375 16.525H37.3251C36.7584 13.725 35.575 11.225 33.775 9.02502C31.975 6.82502 29.725 5.17502 27.025 4.07502V4.97502C27.025 6.14169 26.625 7.15836 25.825 8.02502C25.025 8.89169 24.0417 9.32502 22.875 9.32502H18.525V13.675C18.525 14.2417 18.3 14.7084 17.85 15.075C17.4 15.4417 16.8917 15.625 16.325 15.625H12.175V20.025H17.675V26.275H14.325L4.12505 16.075C3.95838 16.7417 3.84172 17.4 3.77505 18.05C3.70838 18.7 3.67505 19.3584 3.67505 20.025C3.67505 24.525 5.19172 28.4084 8.22505 31.675C11.2584 34.9417 15.0417 36.7084 19.575 36.975V39.975ZM39.175 38.675L32.475 31.975C31.775 32.475 31.0167 32.8584 30.2001 33.125C29.3834 33.3917 28.5417 33.525 27.675 33.525C25.3084 33.525 23.3 32.7 21.65 31.05C20 29.4 19.175 27.3917 19.175 25.025C19.175 22.6584 20 20.65 21.65 19C23.3 17.35 25.3084 16.525 27.675 16.525C30.0417 16.525 32.0501 17.35 33.7001 19C35.3501 20.65 36.175 22.6584 36.175 25.025C36.175 25.8917 36.0334 26.7334 35.75 27.55C35.4667 28.3667 35.0917 29.1417 34.625 29.875L41.3251 36.525L39.175 38.675ZM27.675 30.525C29.2084 30.525 30.5084 29.9917 31.5751 28.925C32.6417 27.8584 33.175 26.5584 33.175 25.025C33.175 23.4917 32.6417 22.1917 31.5751 21.125C30.5084 20.0584 29.2084 19.525 27.675 19.525C26.1417 19.525 24.8417 20.0584 23.775 21.125C22.7084 22.1917 22.175 23.4917 22.175 25.025C22.175 26.5584 22.7084 27.8584 23.775 28.925C24.8417 29.9917 26.1417 30.525 27.675 30.525Z" fill="black"/>
</svg>
