<svg width="40" height="40" viewBox="0 0 40 40" fill="none" xmlns="http://www.w3.org/2000/svg">
<path d="M15.6666 39.5499H3.11658C2.31658 39.5499 1.61658 39.25 1.01658 38.65C0.416577 38.05 0.116577 37.3499 0.116577 36.5499V7.44995C0.116577 6.64995 0.374911 5.94995 0.891577 5.34995C1.40824 4.74995 1.84991 4.44995 2.21658 4.44995H12.3166C12.5499 3.28328 13.1249 2.32495 14.0416 1.57495C14.9582 0.824951 16.0166 0.449951 17.2166 0.449951C18.4166 0.449951 19.4749 0.824951 20.3916 1.57495C21.3082 2.32495 21.8832 3.28328 22.1166 4.44995H32.2166C33.0166 4.44995 33.7166 4.74995 34.3166 5.34995C34.9166 5.94995 35.2166 6.64995 35.2166 7.44995V17.6H32.2166V7.44995H26.9166V13.95H8.41658V7.44995H3.11658V36.5499H15.6666V39.5499ZM25.1166 38.2999L17.1166 30.2999L19.2666 28.15L25.1166 34L37.0666 22.0499L39.2166 24.2L25.1166 38.2999ZM18.1166 7.24995C18.6832 7.24995 19.1582 7.05828 19.5416 6.67495C19.9249 6.29162 20.1166 5.81662 20.1166 5.24995C20.1166 4.68328 19.9249 4.20828 19.5416 3.82495C19.1582 3.44162 18.6832 3.24995 18.1166 3.24995C17.5499 3.24995 17.0749 3.44162 16.6916 3.82495C16.3082 4.20828 16.1166 4.68328 16.1166 5.24995C16.1166 5.81662 16.3082 6.29162 16.6916 6.67495C17.0749 7.05828 17.5499 7.24995 18.1166 7.24995Z" fill="black"/>
</svg>
